<?xml version="1.0" ?><svg id="Layer_1" style="enable-background:new 0 0 512 512;" version="1.1" viewBox="0 0 512 512" xml:space="preserve" xmlns="http://www.w3.org/2000/svg" xmlns:xlink="http://www.w3.org/1999/xlink"><style type="text/css">
	.st0{fill:#2E2E2E;}
	.st1{fill:#5EA4D3;}
</style><g><g id="XMLID_597_"><polygon class="st0" id="XMLID_600_" points="340.1,6 340.1,112.8 448.6,112.8   "/><path class="st1" d="M448.4,124.8H328.3c-0.1,0-0.2-0.1-0.2-0.2V6.5c0-0.1-0.1-0.2-0.2-0.2H81.6    c-0.1,0-0.2,0.1-0.2,0.2v270.2h229.8l58.9,159H81.4v70c0,0.1,0.1,0.2,0.2,0.2h366.2c0.1,0,0.2-0.1,0.2-0.2l0.6-380.7    C448.6,124.9,448.5,124.8,448.4,124.8z" id="XMLID_599_"/></g><g><path class="st0" d="M235.7,362.5h-0.9h-21v30.6h21.4c5.5,0,9.7-1.3,12.7-3.8c3-2.5,4.4-6.1,4.4-10.9c0-4.8-1.5-8.6-4.4-11.4    C245.1,364.2,241,362.7,235.7,362.5z"/><path class="st0" d="M242.5,347.2c2.9-2.3,4.3-5.6,4.3-9.9c0-4.7-1.5-8.2-4.5-10.5s-7.4-3.4-13.1-3.4h-15.3v27.3h17    C235.8,350.6,239.7,349.5,242.5,347.2z"/><path class="st0" d="M302.9,288.8H63.4v135h289.5L302.9,288.8z M176.5,365.4c0,11.9-3.8,21.6-11.3,29.1    c-7.6,7.5-17.4,11.2-29.4,11.2h-31.4v-95.2h31.4c12.1,0,21.9,3.8,29.4,11.3c7.6,7.5,11.3,17.2,11.3,29.1V365.4z M259.5,398.8    c-5.8,4.6-13.9,7-24.2,7H198v-95.2h31.2c10.5,0,18.7,2.2,24.6,6.5c5.9,4.3,8.9,10.8,8.9,19.4c0,4.2-1.2,8-3.6,11.3    c-2.4,3.4-5.7,5.9-9.9,7.6c6.1,1,10.8,3.6,14.1,7.9c3.3,4.3,4.9,9.3,4.9,15C268.2,387.4,265.3,394.1,259.5,398.8z"/><path class="st0" d="M135.7,323.3h-15.6v69.7h15.6c7.6,0,13.7-2.6,18.2-7.7c4.5-5.2,6.7-11.8,6.7-19.9v-14.6    c0-8-2.2-14.6-6.7-19.8C149.4,325.9,143.3,323.3,135.7,323.3z"/></g></g></svg>